<svg xmlns="http://www.w3.org/2000/svg" width="160" height="120" viewBox="0 0 160 120"><g fill="none" stroke="#5EF0B0" stroke-width="1.5" stroke-linecap="round" stroke-linejoin="round"><path d="M53 60 C80 60 76 18 102 18"/><rect x="102" y="13" width="30" height="10" rx="5"/></g><g fill="none" stroke="#7CC4FF" stroke-width="1.5" stroke-linecap="round" stroke-linejoin="round"><path d="M53 60 C80 60 76 35 102 35"/><rect x="102" y="30" width="42" height="10" rx="5"/></g><g fill="none" stroke="#C9A2FF" stroke-width="1.5" stroke-linecap="round" stroke-linejoin="round"><path d="M53 60 C80 60 76 52 102 52"/><rect x="102" y="47" width="34" height="10" rx="5"/></g><g fill="none" stroke="#FC86C3" stroke-width="1.5" stroke-linecap="round" stroke-linejoin="round"><path d="M53 60 C80 60 76 69 102 69"/><rect x="102" y="64" width="40" height="10" rx="5"/></g><g fill="none" stroke="#FFD66B" stroke-width="1.5" stroke-linecap="round" stroke-linejoin="round"><path d="M53 60 C80 60 76 86 102 86"/><rect x="102" y="81" width="28" height="10" rx="5"/></g><g fill="none" stroke="#FC9886" stroke-width="1.5" stroke-linecap="round" stroke-linejoin="round"><path d="M53 60 C80 60 76 103 102 103"/><rect x="102" y="98" width="35" height="10" rx="5"/></g><rect x="18" y="47" width="35" height="26" rx="12" fill="none" stroke="#5EF0B0" stroke-width="1.5"/><circle cx="35.5" cy="60" r="3" fill="none" stroke="#5EF0B0" stroke-width="1.5"/></svg>